<svg width="50" height="50" viewBox="0 0 50 50" fill="none" xmlns="http://www.w3.org/2000/svg">
<g filter="url(#filter0_d_724_25246)">
<path d="M43 25C43 37 37 43 25 43C13 43 7 37 7 25C7 13 13 7 25 7C37 7 43 13 43 25Z" fill="url(#paint0_linear_724_25246)"/>
</g>
<path opacity="0.5" fill-rule="evenodd" clip-rule="evenodd" d="M18.3717 21.0117C18.3057 20.5687 18.2803 19.5096 18.4528 18.4235C18.5463 17.8346 18.7041 17.1943 18.9702 16.6115C19.2354 16.0307 19.6318 15.4562 20.2284 15.0769C20.2382 15.0707 20.2481 15.0646 20.2582 15.0588L20.2854 15.0431C20.5579 14.8854 20.7543 14.7718 20.9419 14.6915C22.279 14.1191 23.8491 14.4875 24.7401 15.6558C24.8614 15.8148 24.9724 16.0074 25.1154 16.2556L25.4331 16.8057C25.7187 17.3007 25.9463 17.695 26.0766 18.0498C26.1796 18.3302 26.1939 18.6003 26.195 18.7876C26.1973 19.2111 26.0715 19.6147 25.9308 19.9522C25.7875 20.296 25.5997 20.6376 25.4241 20.944C25.3668 21.0441 25.3115 21.1392 25.2582 21.2309C25.139 21.4359 25.0298 21.6238 24.9293 21.8127C24.7843 22.0851 24.698 22.2873 24.6607 22.4351C24.6075 22.6464 24.458 22.8279 24.251 22.8823C23.5685 23.0614 22.8983 23.3372 22.2581 23.7145C21.7622 24.0068 21.309 24.3455 20.9007 24.7222C20.4535 25.1347 19.7115 25.06 19.4589 24.5014C19.1051 23.719 18.8662 23.0748 18.7048 22.5591C18.546 22.0515 18.462 21.6675 18.4177 21.3979C18.3955 21.2632 18.3833 21.1571 18.3766 21.0785C18.3744 21.0534 18.3728 21.0312 18.3717 21.0117Z" fill="#08076D"/>
<path d="M23.8696 31.5264C23.0993 30.6453 22.0414 29.2525 20.8387 27.1676C20.7992 27.0991 20.7603 27.0312 20.7221 26.9639C20.5593 26.6778 20.5762 26.3183 20.7845 26.0649C21.3021 25.4351 21.9343 24.8854 22.6721 24.4505C23.1034 24.1962 23.5501 23.9935 24.0052 23.8405C24.4131 23.7032 24.831 23.9602 25.0168 24.3555C25.0908 24.5129 25.1777 24.681 25.2797 24.8578C25.7939 25.7492 26.351 26.2716 26.5634 26.4522C26.5871 26.4724 26.6263 26.4995 26.6971 26.5374C26.7641 26.5733 26.8321 26.6043 26.901 26.6306C27.0293 26.6793 27.2328 26.7159 27.5356 26.7317C27.8087 26.7459 28.106 26.7414 28.4386 26.7365L28.5303 26.7351C28.8848 26.73 29.2792 26.7262 29.651 26.7568C30.0163 26.7869 30.4284 26.8546 30.7988 27.0313C31.0657 27.1586 31.4182 27.3628 31.6821 27.719C31.8803 27.9865 32.0844 28.3404 32.338 28.7801L32.6349 29.2948C32.7805 29.5471 32.8925 29.7413 32.9703 29.928C33.5408 31.2966 33.0686 32.8624 31.8969 33.7425C31.7355 33.8636 31.5408 33.9762 31.276 34.1293L31.2365 34.1521C31.2265 34.158 31.2163 34.1636 31.206 34.1689C30.0382 34.7804 28.7276 34.583 27.6917 34.2177C26.6429 33.8478 25.7096 33.2494 25.1513 32.7976L25.131 32.7818C25.1118 32.7666 25.0861 32.7458 25.0541 32.7192C24.9903 32.6659 24.9015 32.589 24.7902 32.4857C24.5675 32.2791 24.2546 31.9668 23.8696 31.5264Z" fill="#08076D"/>
<defs>
<filter id="filter0_d_724_25246" x="-92" y="-33" width="234" height="234" filterUnits="userSpaceOnUse" color-interpolation-filters="sRGB">
<feFlood flood-opacity="0" result="BackgroundImageFix"/>
<feColorMatrix in="SourceAlpha" type="matrix" values="0 0 0 0 0 0 0 0 0 0 0 0 0 0 0 0 0 0 127 0" result="hardAlpha"/>
<feOffset dy="59"/>
<feGaussianBlur stdDeviation="49.5"/>
<feColorMatrix type="matrix" values="0 0 0 0 0.945098 0 0 0 0 0.568627 0 0 0 0 0.705882 0 0 0 0.2 0"/>
<feBlend mode="normal" in2="BackgroundImageFix" result="effect1_dropShadow_724_25246"/>
<feBlend mode="normal" in="SourceGraphic" in2="effect1_dropShadow_724_25246" result="shape"/>
</filter>
<linearGradient id="paint0_linear_724_25246" x1="7.04841" y1="6.99999" x2="42.9561" y2="43.0548" gradientUnits="userSpaceOnUse">
<stop stop-color="#9DECFD"/>
<stop offset="1" stop-color="#8374E3"/>
</linearGradient>
</defs>
</svg>
