<svg width="52" height="52" viewBox="0 0 52 52" fill="none" xmlns="http://www.w3.org/2000/svg">
<rect width="52" height="52" rx="4" fill="#FF3333"/>
<rect x="8" y="8" width="36" height="36" rx="4" fill="#FF3333"/>
<path fill-rule="evenodd" clip-rule="evenodd" d="M14 14H38C39.65 14 41 15.35 41 17V35C41 36.65 39.65 38 38 38H14C12.35 38 11 36.65 11 35L11.015 17C11.015 15.35 12.35 14 14 14ZM26.795 27.005L37.4 20.375C37.775 20.135 38 19.73 38 19.295C38 18.29 36.905 17.69 36.05 18.215L26 24.5L15.95 18.215C15.095 17.69 14 18.29 14 19.295C14 19.73 14.225 20.135 14.6 20.375L25.205 27.005C25.685 27.305 26.315 27.305 26.795 27.005Z" fill="white"/>
</svg>
