<svg width="29" height="29" viewBox="0 0 29 29" fill="none" xmlns="http://www.w3.org/2000/svg">
<path d="M15.3251 26.5834V17.2249H12.1758V13.5776H15.3251V10.8879C15.0831 8.47289 16.8447 6.31901 19.2597 6.07707C19.5111 6.05189 19.7641 6.04842 20.0161 6.06671C20.9561 6.0634 21.8955 6.11141 22.8303 6.21051V9.47258L20.899 9.47351C19.3847 9.47351 19.0915 10.1931 19.0915 11.2491V13.5777H22.7032L22.2329 17.2249H19.0916V26.5835L15.3251 26.5834Z" fill="white"/>
<path d="M25.3736 2.4165H3.6224C2.95509 2.4165 2.41406 2.95746 2.41406 3.62484V25.376C2.41406 26.0434 2.95509 26.5844 3.6224 26.5844H25.3737C26.041 26.5844 26.582 26.0434 26.582 25.376V3.62484C26.582 2.95746 26.0409 2.4165 25.3736 2.4165ZM22.8298 9.47224L20.8985 9.4732C19.3842 9.4732 19.091 10.1928 19.091 11.2487V13.5773H22.7027L22.2324 17.2245H19.0911V26.5831H15.3246V17.2245H12.1753V13.5773H15.3246V10.8875C15.0826 8.47255 16.8442 6.31866 19.2592 6.07676C19.5106 6.05155 19.7636 6.04808 20.0156 6.06636C20.9555 6.06304 21.895 6.11106 22.8298 6.21018V9.47224Z" fill="#2497FF"/>
</svg>
