<svg width="52" height="52" viewBox="0 0 52 52" fill="none" xmlns="http://www.w3.org/2000/svg">
<rect width="52" height="52" rx="4" fill="#0748C8"/>
<path d="M26.8864 11.0097C26.5912 11.0007 26.2957 11.0007 26.0005 11.0097C18.011 10.7204 11.2998 16.9612 11.0104 24.9488C11.0031 25.1511 11 25.3535 11.0012 25.556C10.9488 29.6534 12.6657 33.5744 15.7122 36.3156C15.9574 36.5336 16.1033 36.8418 16.1167 37.1695L16.1981 39.8368C16.2194 40.5002 16.7745 41.0207 17.438 40.9994C17.5911 40.9945 17.7419 40.9604 17.8821 40.8989L20.858 39.5864C21.1097 39.4749 21.3922 39.4536 21.6577 39.526C23.0728 39.9124 24.5335 40.1062 26.0005 40.1023C34.0361 40.3469 40.7484 34.0326 40.9931 25.9989C41.2378 17.9651 34.922 11.2542 26.8864 11.0097ZM35.0061 22.2037L30.6029 29.1888C29.9389 30.24 28.5482 30.5541 27.4966 29.8903C27.4462 29.8585 27.3972 29.8248 27.3495 29.7892L23.8457 27.1612C23.5241 26.9206 23.0823 26.9219 22.7622 27.1641L18.027 30.7578C17.7138 30.9955 17.2672 30.9344 17.0294 30.6214C16.8497 30.3847 16.8359 30.0614 16.9949 29.8103L21.4011 22.8224C22.0652 21.7709 23.4561 21.4569 24.5077 22.1209C24.558 22.1527 24.6069 22.1863 24.6545 22.2219L28.1584 24.8499C28.4798 25.0905 28.9217 25.0892 29.2418 24.847L33.974 21.2564C34.2872 21.0187 34.7338 21.0798 34.9715 21.3928C35.1511 21.6294 35.165 21.9527 35.0061 22.2037Z" fill="white"/>
</svg>
