<svg width="52" height="52" viewBox="0 0 52 52" fill="none" xmlns="http://www.w3.org/2000/svg">
<rect width="52" height="52" rx="4" fill="#4F2CD9"/>
<rect x="12" y="12" width="28" height="28" rx="4" fill="#4F2CD9"/>
<path d="M32.2287 18.3702C31.9518 18.3702 31.6811 18.4523 31.4509 18.6061C31.2207 18.7599 31.0412 18.9786 30.9353 19.2344C30.8293 19.4902 30.8016 19.7717 30.8556 20.0433C30.9096 20.3149 31.043 20.5643 31.2387 20.7601C31.4345 20.9559 31.684 21.0892 31.9556 21.1433C32.2271 21.1973 32.5086 21.1696 32.7645 21.0636C33.0203 20.9576 33.2389 20.7782 33.3928 20.548C33.5466 20.3177 33.6287 20.0471 33.6287 19.7702C33.6287 19.3989 33.4812 19.0428 33.2186 18.7802C32.9561 18.5177 32.6 18.3702 32.2287 18.3702ZM37.5954 21.1935C37.5727 20.2255 37.3914 19.2678 37.0587 18.3585C36.7621 17.5805 36.3003 16.876 35.7054 16.2935C35.1277 15.6955 34.4215 15.2367 33.6404 14.9518C32.7335 14.609 31.7747 14.4236 30.8054 14.4035C29.5687 14.3335 29.172 14.3335 25.9987 14.3335C22.8254 14.3335 22.4287 14.3335 21.192 14.4035C20.2227 14.4236 19.2639 14.609 18.357 14.9518C17.5773 15.2396 16.8718 15.698 16.292 16.2935C15.694 16.8712 15.2352 17.5773 14.9504 18.3585C14.6076 19.2654 14.4221 20.2242 14.402 21.1935C14.332 22.4302 14.332 22.8268 14.332 26.0002C14.332 29.1735 14.332 29.5702 14.402 30.8068C14.4221 31.7762 14.6076 32.7349 14.9504 33.6418C15.2352 34.423 15.694 35.1291 16.292 35.7068C16.8718 36.3023 17.5773 36.7607 18.357 37.0485C19.2639 37.3913 20.2227 37.5768 21.192 37.5968C22.4287 37.6668 22.8254 37.6668 25.9987 37.6668C29.172 37.6668 29.5687 37.6668 30.8054 37.5968C31.7747 37.5768 32.7335 37.3913 33.6404 37.0485C34.4215 36.7636 35.1277 36.3048 35.7054 35.7068C36.303 35.1265 36.7651 34.4214 37.0587 33.6418C37.3914 32.7325 37.5727 31.7748 37.5954 30.8068C37.5954 29.5702 37.6654 29.1735 37.6654 26.0002C37.6654 22.8268 37.6654 22.4302 37.5954 21.1935ZM35.4954 30.6668C35.4869 31.4074 35.3527 32.1411 35.0987 32.8368C34.9124 33.3446 34.6132 33.8033 34.2237 34.1785C33.8453 34.5641 33.3875 34.8627 32.882 35.0535C32.1863 35.3075 31.4526 35.4417 30.712 35.4502C29.5454 35.5085 29.1137 35.5202 26.0454 35.5202C22.977 35.5202 22.5454 35.5202 21.3787 35.4502C20.6097 35.4646 19.8441 35.3462 19.1154 35.1002C18.6321 34.8996 18.1953 34.6017 17.832 34.2252C17.4448 33.8504 17.1493 33.3912 16.9687 32.8835C16.6839 32.1778 16.5259 31.4274 16.502 30.6668C16.502 29.5002 16.432 29.0685 16.432 26.0002C16.432 22.9318 16.432 22.5002 16.502 21.3335C16.5073 20.5764 16.6455 19.8261 16.9104 19.1168C17.1158 18.6244 17.431 18.1854 17.832 17.8335C18.1865 17.4324 18.6245 17.1138 19.1154 16.9002C19.8265 16.6435 20.576 16.5094 21.332 16.5035C22.4987 16.5035 22.9304 16.4335 25.9987 16.4335C29.067 16.4335 29.4987 16.4335 30.6654 16.5035C31.4059 16.512 32.1397 16.6461 32.8354 16.9002C33.3655 17.0969 33.8414 17.4168 34.2237 17.8335C34.606 18.1919 34.9048 18.63 35.0987 19.1168C35.358 19.8273 35.4922 20.5772 35.4954 21.3335C35.5537 22.5002 35.5654 22.9318 35.5654 26.0002C35.5654 29.0685 35.5537 29.5002 35.4954 30.6668ZM25.9987 20.0152C24.8155 20.0175 23.6595 20.3704 22.6768 21.0295C21.6941 21.6885 20.9288 22.6241 20.4776 23.7179C20.0264 24.8117 19.9095 26.0147 20.1418 27.1749C20.374 28.3351 20.945 29.4005 21.7825 30.2363C22.6199 31.0722 23.6864 31.641 24.847 31.871C26.0077 32.101 27.2105 31.9818 28.3034 31.5285C29.3963 31.0751 30.3304 30.308 30.9875 29.324C31.6446 28.3401 31.9954 27.1834 31.9954 26.0002C31.9969 25.2128 31.8428 24.4329 31.5418 23.7053C31.2409 22.9777 30.799 22.3168 30.2417 21.7606C29.6844 21.2043 29.0226 20.7638 28.2945 20.4642C27.5663 20.1647 26.7861 20.0121 25.9987 20.0152ZM25.9987 29.8852C25.2303 29.8852 24.4792 29.6573 23.8403 29.2304C23.2014 28.8035 22.7035 28.1968 22.4094 27.4869C22.1154 26.777 22.0384 25.9959 22.1883 25.2422C22.3383 24.4886 22.7083 23.7964 23.2516 23.2531C23.7949 22.7097 24.4872 22.3397 25.2408 22.1898C25.9944 22.0399 26.7755 22.1168 27.4854 22.4109C28.1953 22.7049 28.8021 23.2029 29.229 23.8418C29.6558 24.4807 29.8837 25.2318 29.8837 26.0002C29.8837 26.5103 29.7832 27.0155 29.588 27.4869C29.3927 27.9582 29.1066 28.3865 28.7458 28.7473C28.3851 29.108 27.9568 29.3942 27.4854 29.5894C27.0141 29.7847 26.5089 29.8852 25.9987 29.8852Z" fill="white"/>
</svg>
