<svg width="52" height="52" viewBox="0 0 52 52" fill="none" xmlns="http://www.w3.org/2000/svg">
<rect width="52" height="52" rx="4" fill="#22C55E"/>
<path d="M37.9099 29.9703C37.8313 30.0835 37.7447 30.191 37.6506 30.2919L37.6425 30.3007C37.1809 30.8468 36.6714 31.3511 36.1199 31.8077C32.2484 35.3581 25.8759 39.5849 25.035 38.9329C24.3037 38.366 26.2391 35.5935 24.0063 35.132C23.8505 35.1142 23.6951 35.0953 23.5411 35.0735L23.5382 35.0734C16.9802 34.1491 12 29.5977 12 24.1223C11.9999 17.9796 18.268 13 26 13C33.732 13 40 17.9796 40 24.1223C39.9822 26.2487 39.2463 28.3078 37.9099 29.9703Z" fill="white"/>
<path d="M20.7045 25.6637H18.5858V21.6359C18.5846 21.2851 18.2445 21.001 17.8246 21H17.7612C17.3413 21.001 17.0012 21.2851 17 21.636V26.3527C17.0012 26.7035 17.3412 26.9877 17.7612 26.9888H20.7045C21.1244 26.9877 21.4645 26.7035 21.4657 26.3527V26.2996C21.4644 25.9488 21.1244 25.6647 20.7045 25.6637ZM29.7986 21.0002H29.7349C29.3151 21.0012 28.9751 21.2854 28.9739 21.6362V24.4049L26.2228 21.3217C26.0874 21.1233 25.8353 21.0007 25.562 21.0002H25.4985C25.0786 21.0012 24.7384 21.2853 24.7372 21.6362V26.3528C24.7384 26.7037 25.0785 26.9879 25.4985 26.9888H25.562C25.9818 26.9878 26.3218 26.7036 26.323 26.3528V23.5323L29.094 26.6945C29.111 26.7166 29.1296 26.7379 29.1496 26.7582L29.1498 26.7583C29.2249 26.8422 29.328 26.9057 29.4461 26.9409C29.5377 26.9725 29.6358 26.9888 29.7349 26.9887H29.7984C29.9224 26.9888 30.0446 26.9633 30.154 26.9145C30.2251 26.8878 30.2883 26.8484 30.3393 26.7992L30.3396 26.7989C30.4804 26.6802 30.5595 26.5199 30.5597 26.3528V21.6362C30.5585 21.2854 30.2184 21.0012 29.7986 21.0002ZM22.841 21H22.9045C23.3249 21 23.6657 21.2848 23.6657 21.6361V26.3526C23.6657 26.7039 23.3249 26.9886 22.9045 26.9886H22.841C22.4207 26.9886 22.0799 26.704 22.0798 26.3528V21.6361C22.0798 21.2848 22.4205 21 22.8409 21C22.8409 21 22.8409 21 22.841 21ZM35.2387 21.0113H32.2953C31.8755 21.0123 31.5354 21.2965 31.5342 21.6473V26.364C31.5354 26.7148 31.8755 26.999 32.2953 27H35.2387C35.6586 26.999 35.9987 26.7149 36 26.364V26.3109C35.9987 25.96 35.6586 25.6759 35.2387 25.675H33.1201V24.6679H35.2387C35.6586 24.667 35.9988 24.383 36 24.0321V23.9791C35.9987 23.6282 35.6586 23.3441 35.2387 23.3431H33.1201V22.3362H35.2387C35.6586 22.3352 35.9987 22.0511 36 21.7002V21.6473C35.9987 21.2965 35.6586 21.0123 35.2387 21.0113Z" fill="#22C55E"/>
</svg>
