<svg width="52" height="52" viewBox="0 0 52 52" fill="none" xmlns="http://www.w3.org/2000/svg">
<rect width="52" height="52" rx="4" fill="#FF3737"/>
<path d="M38 26C38 29.1826 36.7357 32.2348 34.4853 34.4853C32.2348 36.7357 29.1826 38 26 38M38 26C38 22.8174 36.7357 19.7652 34.4853 17.5147C32.2348 15.2643 29.1826 14 26 14M38 26H14M26 38C22.8174 38 19.7652 36.7357 17.5147 34.4853C15.2643 32.2348 14 29.1826 14 26M26 38C28.2093 38 30 32.6267 30 26C30 19.3733 28.2093 14 26 14M26 38C23.7907 38 22 32.6267 22 26C22 19.3733 23.7907 14 26 14M26 14C22.8174 14 19.7652 15.2643 17.5147 17.5147C15.2643 19.7652 14 22.8174 14 26" stroke="white" stroke-width="1.5" stroke-linecap="round" stroke-linejoin="round"/>
</svg>
