<svg width="52" height="52" viewBox="0 0 52 52" fill="none" xmlns="http://www.w3.org/2000/svg">
<rect width="52" height="52" rx="4" fill="#0CB9F0"/>
<rect x="7.08984" y="7.09033" width="37.8182" height="37.8182" rx="4" fill="#0CB9F0"/>
<path d="M26 11.0005C17.7157 11.0005 11 17.7162 11 26.0005C11 34.2847 17.7157 41.0005 26 41.0005C34.2842 41.0005 41 34.2847 41 26.0005C41 17.7162 34.2842 11.0005 26 11.0005ZM30.7697 33.7292C30.5522 34.2716 29.9361 34.535 29.3937 34.3174C29.35 34.2999 29.3076 34.2796 29.2667 34.2564L25.1947 31.0924L22.5812 33.5035C22.458 33.5945 22.2969 33.6166 22.1538 33.5619L22.6547 29.0792L22.6708 29.0919L22.681 29.0034C22.681 29.0034 30.0085 22.3321 30.307 22.048C30.6092 21.7644 30.5095 21.7029 30.5095 21.7029C30.5267 21.3571 29.9672 21.7029 29.9672 21.7029L20.2584 27.949L16.2152 26.572C16.2152 26.572 15.5942 26.3492 15.5357 25.8595C15.4742 25.3734 16.2354 25.1095 16.2354 25.1095L32.3109 18.7232C32.3109 18.7232 33.6325 18.1345 33.6325 19.1095L30.7697 33.7292Z" fill="white"/>
</svg>
