<svg width="52" height="52" viewBox="0 0 52 52" fill="none" xmlns="http://www.w3.org/2000/svg">
<rect width="52" height="52" rx="4" fill="#FFD200"/>
<rect x="7.08984" y="7.08984" width="37.8182" height="37.8182" rx="4" fill="#FFD200"/>
<path d="M26.0232 10.2383C17.3203 10.2383 10.2656 17.293 10.2656 25.9959C10.2656 28.0002 10.6785 30.0314 11.3986 31.8561L12.6293 34.3663C13.4093 35.9877 13.1351 37.5162 12.0872 39.3898C11.5089 40.4267 12.2306 41.6762 13.4171 41.7046C15.0197 41.7408 17.5834 41.0822 19.6225 40.3258C21.5024 41.1941 23.9243 41.7535 26.0232 41.7535C34.7261 41.7535 41.7808 34.6988 41.7808 25.9959C41.7808 17.293 34.7261 10.2383 26.0232 10.2383ZM19.7202 24.4201C20.59 24.4201 21.2959 25.126 21.2959 25.9959C21.2959 26.8657 20.59 27.5716 19.7202 27.5716C18.8504 27.5716 18.1444 26.8657 18.1444 25.9959C18.1444 25.126 18.8504 24.4201 19.7202 24.4201ZM26.0232 24.4201C26.893 24.4201 27.599 25.126 27.599 25.9959C27.599 26.8657 26.893 27.5716 26.0232 27.5716C25.1534 27.5716 24.4474 26.8657 24.4474 25.9959C24.4474 25.126 25.1534 24.4201 26.0232 24.4201ZM32.3262 24.4201C33.1961 24.4201 33.902 25.126 33.902 25.9959C33.902 26.8657 33.1961 27.5716 32.3262 27.5716C31.4564 27.5716 30.7505 26.8657 30.7505 25.9959C30.7505 25.126 31.4564 24.4201 32.3262 24.4201Z" fill="white"/>
</svg>
