<svg width="28" height="28" viewBox="0 0 28 28" fill="none" xmlns="http://www.w3.org/2000/svg">
<rect width="28" height="28" rx="3" fill="#0CB9F0"/>
<path d="M25.6654 6.76642C24.7884 7.14687 23.861 7.39836 22.912 7.51309C23.9132 6.91496 24.6635 5.974 25.0237 4.86476C24.0828 5.42483 23.0529 5.81944 21.9787 6.03142C21.2607 5.25276 20.3045 4.73444 19.2601 4.55775C18.2158 4.38106 17.1423 4.55601 16.2081 5.05514C15.2739 5.55428 14.5318 6.34938 14.0981 7.31573C13.6645 8.28209 13.5639 9.36504 13.812 10.3948C11.9097 10.2985 10.0489 9.8032 8.35046 8.94093C6.65204 8.07865 5.15402 6.86873 3.9537 5.38976C3.53269 6.12495 3.31147 6.95755 3.31203 7.80476C3.31054 8.59154 3.50362 9.36648 3.87408 10.0606C4.24454 10.7547 4.78089 11.3464 5.43536 11.7831C4.67467 11.7624 3.93023 11.5583 3.26536 11.1881V11.2464C3.27107 12.3488 3.65736 13.4154 4.3589 14.2657C5.06044 15.1161 6.03416 15.698 7.11536 15.9131C6.69916 16.0398 6.26705 16.1065 5.83203 16.1114C5.5309 16.1079 5.23052 16.0806 4.9337 16.0298C5.24159 16.978 5.83742 17.8068 6.63829 18.4006C7.43915 18.9945 8.4052 19.3239 9.40203 19.3431C7.71877 20.6676 5.64056 21.3904 3.4987 21.3964C3.10872 21.3977 2.71906 21.3743 2.33203 21.3264C4.51886 22.7384 7.06731 23.4879 9.67036 23.4848C11.4667 23.5034 13.2487 23.1639 14.9123 22.4862C16.576 21.8084 18.0879 20.806 19.3598 19.5373C20.6316 18.2687 21.638 16.7594 22.32 15.0975C23.002 13.4356 23.3461 11.6544 23.332 9.85809C23.332 9.65976 23.332 9.44976 23.332 9.23976C24.2475 8.55703 25.0371 7.72009 25.6654 6.76642Z" fill="white"/>
</svg>
