<svg width="52" height="52" viewBox="0 0 52 52" fill="none" xmlns="http://www.w3.org/2000/svg">
<rect width="52" height="52" rx="4" fill="#6563FF"/>
<path d="M34.6804 27.1664C34.4237 27.1664 34.1554 27.0848 33.8987 27.0264C33.3789 26.9119 32.8681 26.7598 32.3704 26.5714C31.8291 26.3745 31.2342 26.3848 30.7001 26.6001C30.1659 26.8155 29.7303 27.2208 29.477 27.7381L29.2204 28.2631C28.084 27.631 27.0398 26.8459 26.117 25.9298C25.2009 25.007 24.4158 23.9628 23.7837 22.8264L24.2737 22.4998C24.791 22.2465 25.1963 21.8109 25.4117 21.2767C25.627 20.7426 25.6373 20.1477 25.4404 19.6064C25.2551 19.1076 25.1031 18.597 24.9854 18.0781C24.927 17.8214 24.8804 17.5531 24.8454 17.2848C24.7037 16.463 24.2733 15.7188 23.6316 15.1862C22.9899 14.6536 22.1792 14.3676 21.3454 14.3798H17.8454C17.3426 14.375 16.8447 14.4787 16.3855 14.6837C15.9264 14.8887 15.5168 15.1902 15.1847 15.5678C14.8526 15.9453 14.6057 16.3899 14.4608 16.8714C14.316 17.3529 14.2766 17.86 14.3454 18.3581C14.9669 23.2457 17.1991 27.787 20.6893 31.2645C24.1795 34.7421 28.7289 36.9577 33.6187 37.5614H34.062C34.9223 37.5627 35.753 37.247 36.3954 36.6748C36.7645 36.3446 37.0593 35.94 37.2604 35.4875C37.4615 35.035 37.5643 34.5449 37.562 34.0498V30.5498C37.5477 29.7394 37.2526 28.9591 36.7271 28.342C36.2015 27.725 35.4781 27.3095 34.6804 27.1664ZM35.2637 34.1664C35.2635 34.3321 35.228 34.4958 35.1596 34.6467C35.0912 34.7975 34.9915 34.9321 34.867 35.0414C34.7371 35.1546 34.5847 35.2391 34.4198 35.2893C34.255 35.3396 34.0814 35.3545 33.9104 35.3331C29.5411 34.7729 25.4826 32.774 22.3752 29.6518C19.2678 26.5295 17.2882 22.4617 16.7487 18.0898C16.7301 17.9189 16.7464 17.746 16.7965 17.5816C16.8467 17.4171 16.9296 17.2646 17.0404 17.1331C17.1497 17.0087 17.2843 16.9089 17.4351 16.8405C17.586 16.7721 17.7497 16.7366 17.9154 16.7364H21.4154C21.6867 16.7304 21.9516 16.8191 22.1645 16.9873C22.3775 17.1556 22.5251 17.3928 22.582 17.6581C22.6287 17.977 22.687 18.292 22.757 18.6031C22.8918 19.2181 23.0712 19.8225 23.2937 20.4114L21.6604 21.1698C21.5207 21.2338 21.3951 21.3249 21.2907 21.4376C21.1863 21.5504 21.1053 21.6826 21.0521 21.8268C20.999 21.971 20.9749 22.1243 20.9812 22.2778C20.9875 22.4313 21.024 22.5821 21.0887 22.7214C22.7678 26.318 25.6588 29.209 29.2554 30.8881C29.5394 31.0048 29.858 31.0048 30.142 30.8881C30.2875 30.8361 30.4212 30.7556 30.5354 30.6515C30.6496 30.5473 30.7419 30.4216 30.807 30.2814L31.5304 28.6481C32.1335 28.8638 32.749 29.043 33.3737 29.1848C33.6848 29.2548 33.9998 29.3131 34.3187 29.3598C34.584 29.4167 34.8212 29.5643 34.9894 29.7773C35.1577 29.9902 35.2464 30.2551 35.2404 30.5264L35.2637 34.1664Z" fill="white"/>
</svg>
