<svg width="44" height="44" viewBox="0 0 44 44" fill="none" xmlns="http://www.w3.org/2000/svg">
<path d="M43.6441 10.1845C43.6257 9.25488 43.5508 8.32721 43.4198 7.40665C43.2644 6.58887 43.0004 5.79553 42.6348 5.04769C41.8329 3.46292 40.5466 2.17517 38.9627 1.37161C38.2193 1.00699 37.4305 0.743124 36.6174 0.586996C35.6898 0.453378 34.7549 0.377067 33.818 0.358499C33.4205 0.344069 32.9061 0.336941 32.6687 0.336941L11.332 0.333496C11.0955 0.333496 10.581 0.340646 10.1831 0.354794C9.25341 0.373063 8.32573 0.447959 7.40518 0.579066C6.58741 0.734441 5.79407 0.998402 5.04622 1.36394C3.46148 2.16594 2.17371 3.45231 1.36999 5.03618C1.00548 5.77965 0.741631 6.56836 0.585401 7.38151C0.451895 8.30905 0.375578 9.24393 0.356883 10.1808C0.342735 10.5784 0.335476 11.0928 0.335476 11.33L0.332031 32.6669C0.332031 32.9032 0.339181 33.4177 0.35333 33.8158C0.371598 34.7455 0.446494 35.6731 0.577601 36.5937C0.732995 37.4114 0.996956 38.2048 1.36248 38.9526C2.16443 40.5373 3.45076 41.8251 5.03459 42.6287C5.77811 42.9932 6.56686 43.2571 7.38005 43.4133C8.30757 43.547 9.24246 43.6233 10.1794 43.6418C10.5768 43.6561 11.0913 43.6634 11.3286 43.6634L32.6654 43.6668C32.9017 43.6668 33.4164 43.6597 33.8142 43.6455C34.7439 43.6272 35.6716 43.5523 36.5922 43.4213C37.4099 43.2658 38.2032 43.0018 38.951 42.6364C40.5358 41.8344 41.8236 40.548 42.6273 38.9641C42.9918 38.2207 43.2557 37.432 43.4119 36.6188C43.5455 35.6913 43.6218 34.7564 43.6405 33.8195C43.6548 33.422 43.6619 32.9075 43.6619 32.6703L43.6654 11.3334C43.6654 11.0971 43.6582 10.5825 43.6441 10.1845ZM22.4683 37.0725H22.462C19.883 37.0724 17.3453 36.4262 15.0803 35.1931L6.89181 37.3403L9.0832 29.3384C7.38545 26.3927 6.707 22.969 7.15302 19.5984C7.59904 16.2278 9.14462 13.0985 11.5501 10.6956C13.9556 8.29282 17.0867 6.75073 20.4578 6.30846C23.8289 5.86619 27.2518 6.54847 30.1957 8.24949C33.1396 9.95051 35.44 12.5753 36.7404 15.7168C38.0408 18.8583 38.2684 22.341 37.3879 25.6251C36.5075 28.9091 34.5682 31.8109 31.8707 33.8806C29.1733 35.9503 25.8683 37.0723 22.4683 37.0725Z" fill="#22C55E"/>
</svg>
