<svg width="254" height="294" viewBox="0 0 254 294" fill="none" xmlns="http://www.w3.org/2000/svg">
<path fill-rule="evenodd" clip-rule="evenodd" d="M0.255859 127.8V125.69C0.255859 56.274 56.5289 0 125.946 0H128.056C197.472 0 253.746 56.274 253.746 125.69V127.8C253.746 197.217 197.472 253.49 128.056 253.49H125.946C56.5289 253.49 0.255859 197.217 0.255859 127.8Z" fill="#E4EBF7"/>
<path fill-rule="evenodd" clip-rule="evenodd" d="M40.2441 131.707C40.1344 132.796 39.8113 133.852 39.2933 134.816C38.7753 135.78 38.0725 136.632 37.2251 137.325C36.3776 138.017 35.4022 138.535 34.3543 138.851C33.3065 139.166 32.2068 139.272 31.1181 139.162C30.0294 139.052 28.9729 138.729 28.009 138.211C27.0452 137.693 26.1928 136.99 25.5005 136.143C24.8083 135.295 24.2897 134.32 23.9744 133.272C23.6592 132.224 23.5534 131.125 23.6631 130.036C23.8866 127.839 24.9733 125.82 26.6842 124.424C28.3952 123.028 30.5905 122.368 32.7878 122.589C34.9851 122.811 37.0045 123.896 38.4025 125.605C39.8004 127.315 40.4624 129.509 40.2431 131.707" fill="white"/>
<path d="M48.9215 147.483L36.1875 158.344M37.4465 135.189L47.9995 141.172L37.4465 135.189Z" stroke="white" stroke-width="2"/>
<path fill-rule="evenodd" clip-rule="evenodd" d="M40.3664 160.415C40.2972 161.165 40.0801 161.894 39.7276 162.56C39.3751 163.226 38.8943 163.816 38.3128 164.295C37.7313 164.774 37.0608 165.133 36.3398 165.351C35.6187 165.57 34.8616 165.644 34.112 165.568C33.3624 165.492 32.6352 165.269 31.9723 164.911C31.3095 164.553 30.7241 164.067 30.25 163.481C29.7759 162.896 29.4224 162.222 29.21 161.499C28.9976 160.777 28.9304 160.019 29.0124 159.27C29.1761 157.774 29.9242 156.403 31.0938 155.456C32.2633 154.509 33.7597 154.063 35.257 154.214C36.7544 154.365 38.1314 155.101 39.0884 156.262C40.0453 157.424 40.5047 158.916 40.3664 160.415ZM58.1994 144.199C58.127 144.952 57.9065 145.684 57.5505 146.352C57.1945 147.02 56.7101 147.611 56.125 148.092C55.5399 148.572 54.8657 148.932 54.1411 149.151C53.4165 149.37 52.6558 149.443 51.9027 149.368C51.1496 149.292 50.4188 149.068 49.7525 148.709C49.0861 148.35 48.4973 147.862 48.0197 147.275C47.5422 146.688 47.1854 146.012 46.9698 145.286C46.7542 144.561 46.684 143.8 46.7634 143.047C46.9191 141.533 47.6692 140.142 48.8491 139.18C50.029 138.219 51.5422 137.764 53.0567 137.917C54.5713 138.07 55.9633 138.817 56.9275 139.995C57.8916 141.173 58.349 142.685 58.1994 144.2V144.199ZM99.9124 27.033L129.936 27.02C130.543 27.0197 131.144 26.9 131.704 26.6676C132.264 26.4352 132.773 26.0948 133.202 25.6657C133.631 25.2366 133.971 24.7273 134.203 24.1667C134.434 23.6062 134.554 23.0056 134.553 22.399C134.553 21.7924 134.433 21.1918 134.201 20.6315C133.969 20.0712 133.628 19.5622 133.199 19.1334C132.77 18.7047 132.261 18.3647 131.7 18.1328C131.14 17.9009 130.539 17.7817 129.932 17.782L99.9084 17.795C98.7 17.8206 97.5498 18.3188 96.7044 19.1827C95.8591 20.0466 95.3859 21.2073 95.3865 22.4159C95.387 23.6246 95.8612 24.7849 96.7072 25.648C97.5533 26.5112 98.704 27.0084 99.9124 27.033ZM111.396 45.495L141.419 45.482C142.034 45.4945 142.645 45.3842 143.217 45.1576C143.788 44.931 144.309 44.5925 144.748 44.1622C145.187 43.7318 145.535 43.2181 145.773 42.6513C146.011 42.0844 146.134 41.4757 146.133 40.8609C146.133 40.2461 146.01 39.6376 145.772 39.0709C145.533 38.5043 145.184 37.9909 144.745 37.5609C144.305 37.1309 143.785 36.7929 143.213 36.5668C142.641 36.3407 142.03 36.2309 141.415 36.244L111.391 36.257C110.166 36.2575 108.992 36.7447 108.126 37.6113C107.26 38.4779 106.774 39.6529 106.774 40.878C106.775 42.103 107.262 43.2777 108.129 44.1435C108.995 45.0094 110.17 45.4955 111.395 45.495" fill="white"/>
<path fill-rule="evenodd" clip-rule="evenodd" d="M113.786 27.02V27.018L129.676 27.011C128.451 27.0116 127.277 27.4989 126.411 28.3656C125.545 29.2323 125.059 30.4075 125.06 31.6325C125.06 32.8575 125.548 34.0321 126.414 34.8979C127.281 35.7636 128.456 36.2497 129.681 36.249L113.789 36.256V36.254C114.997 36.2283 116.147 35.7304 116.992 34.8669C117.837 34.0034 118.31 32.8432 118.309 31.635C118.309 30.4269 117.835 29.2671 116.989 28.4043C116.143 27.5416 114.993 27.0446 113.785 27.02H113.786ZM150.423 69.69H146.444C145.179 69.686 143.967 69.1816 143.072 68.287C142.178 67.3923 141.674 66.1801 141.67 64.915C141.674 63.65 142.178 62.4378 143.073 61.5433C143.967 60.6488 145.179 60.1447 146.444 60.141H150.423C151.688 60.1447 152.901 60.6488 153.795 61.5433C154.69 62.4377 155.194 63.6499 155.198 64.915C155.194 66.1803 154.69 67.3927 153.796 68.2873C152.901 69.182 151.688 69.6863 150.423 69.69Z" fill="white"/>
<path fill-rule="evenodd" clip-rule="evenodd" d="M171.943 29.833C171.943 13.441 185.232 0.152954 201.624 0.152954C218.016 0.152954 231.304 13.441 231.304 29.833C231.304 46.226 218.016 59.514 201.624 59.514C185.232 59.514 171.944 46.226 171.944 29.834" fill="#FF603B"/>
<path fill-rule="evenodd" clip-rule="evenodd" d="M203.813 19.034L203.137 34.069C203.122 34.4607 202.957 34.8317 202.675 35.1038C202.392 35.3759 202.016 35.528 201.624 35.528C201.232 35.528 200.855 35.3759 200.573 35.1038C200.291 34.8317 200.125 34.4607 200.111 34.069L199.436 19.034C199.425 18.7398 199.473 18.4464 199.578 18.1713C199.683 17.8963 199.843 17.6453 200.047 17.4333C200.252 17.2213 200.496 17.0527 200.767 16.9375C201.038 16.8223 201.33 16.7629 201.624 16.7629C201.919 16.7629 202.21 16.8223 202.481 16.9375C202.752 17.0527 202.997 17.2213 203.201 17.4333C203.405 17.6453 203.565 17.8963 203.67 18.1713C203.775 18.4464 203.824 18.7398 203.813 19.034ZM203.549 38.412C204.062 38.889 204.319 39.512 204.319 40.282C204.319 41.052 204.062 41.675 203.549 42.189C202.999 42.665 202.339 42.922 201.606 42.922C201.258 42.9282 200.913 42.8631 200.591 42.7307C200.269 42.5983 199.978 42.4013 199.736 42.152C199.186 41.638 198.93 41.016 198.93 40.282C198.93 39.512 199.186 38.889 199.736 38.412C200.249 37.899 200.873 37.679 201.606 37.679C202.376 37.679 203.036 37.899 203.549 38.412Z" fill="white"/>
<path fill-rule="evenodd" clip-rule="evenodd" d="M119.556 132.874C123.982 132.276 123.168 131.67 123.635 128.096C124.31 122.916 120.527 111.161 115.373 102.978C114.285 92.258 102.775 91.738 102.775 91.738C102.775 91.738 107.087 96.633 106.971 107.937C108.369 113.18 107.775 122.387 107.775 122.387C107.775 122.387 113.03 133.756 119.555 132.874" fill="#FFB594"/>
<path fill-rule="evenodd" clip-rule="evenodd" d="M101.199 91.209C101.199 91.209 102.662 90.626 104.41 91.791C112.49 93.189 114.778 98.497 115.71 103.159C117.574 104.441 117.574 105.489 117.574 106.655C117.939 107.432 119.089 109.685 119.089 109.685C119.089 109.685 111.864 111.433 108.135 116.443C106.736 110.033 101.199 91.208 101.199 91.208" fill="white"/>
<path fill-rule="evenodd" clip-rule="evenodd" d="M94.2636 90.099L95.2826 84.284L86.0526 72.41L80.8196 77.991L78.2266 87.854C78.2266 87.854 86.6166 92.982 94.2636 90.1" fill="#FFB594"/>
<path fill-rule="evenodd" clip-rule="evenodd" d="M83.1872 77.8149C83.1872 77.8149 78.6302 74.9469 80.7422 70.9229C82.3742 67.8159 85.2792 72.0619 85.2792 72.0619C85.2792 72.0619 85.8032 68.3999 88.4182 68.3999C88.9412 67.3539 89.9872 64.2159 89.9872 64.2159C89.9872 64.2159 101.494 66.8309 103.587 67.3539C103.586 72.5839 101.27 86.8829 95.7032 87.3229C86.7632 88.0289 83.1872 77.8149 83.1872 77.8149Z" fill="#FFC6A0"/>
<path fill-rule="evenodd" clip-rule="evenodd" d="M103.227 71.842C105.843 69.749 106.716 62.067 106.716 62.067C106.716 62.067 104.224 61.575 100.04 60.005C95.3318 57.913 87.1728 55.234 82.4648 60.987C72.9248 65.397 80.4028 80.917 80.4028 80.917L83.1318 77.88C83.1318 77.88 79.1758 74.576 81.0398 71.603C83.2228 68.123 84.9828 72.683 84.9828 72.683C84.9828 72.683 85.6228 70.283 88.5828 69.323C88.9388 68.609 89.6228 66.633 90.0228 65.451C90.1085 65.1962 90.2862 64.9826 90.5211 64.8519C90.7559 64.7211 91.0311 64.6826 91.2928 64.744C93.7028 65.304 100.016 66.774 102.71 67.42C103.234 67.546 103.586 68.039 103.535 68.576L103.227 71.842Z" fill="#520038"/>
<path fill-rule="evenodd" clip-rule="evenodd" d="M101.476 76.113C101.372 76.726 100.891 77.157 100.4 77.073C99.9103 76.991 99.5953 76.427 99.6983 75.813C99.8023 75.2 100.283 74.769 100.774 74.852C101.265 74.935 101.579 75.499 101.476 76.112V76.113ZM94.5163 74.673C94.4123 75.286 93.9313 75.717 93.4403 75.633C92.9503 75.551 92.6353 74.9871 92.7383 74.3731C92.8423 73.7601 93.3233 73.3291 93.8143 73.4131C94.3053 73.4951 94.6193 74.059 94.5163 74.673Z" fill="#552950"/>
<path d="M99.4615 73.243L98.5615 74.863L98.2615 79.243H96.0215" stroke="#DB836E" stroke-width="1.063" stroke-linecap="round" stroke-linejoin="round"/>
<path d="M100.182 72.883C100.182 72.883 101.982 72.163 102.702 73.423" stroke="#5C2552" stroke-width="1.117" stroke-linecap="round" stroke-linejoin="round"/>
<path d="M81.623 72.683C81.623 72.683 82.103 71.563 82.743 71.963C83.383 72.363 84.023 73.403 83.303 73.963C82.583 74.523 83.4631 75.643 83.4631 75.643" stroke="#DB836E" stroke-width="1.117" stroke-linecap="round" stroke-linejoin="round"/>
<path d="M92.582 71.323C92.582 71.323 94.422 72.443 96.742 72.283" stroke="#5C2552" stroke-width="1.117" stroke-linecap="round" stroke-linejoin="round"/>
<path d="M83.9434 79.6429C83.9434 79.6429 85.7294 86.1899 93.2054 87.5969M92.9824 80.2029C92.9824 80.2029 95.2224 81.4029 97.3824 81.4029L92.9824 80.2029ZM93.9424 82.7629C93.9424 82.7629 94.9024 83.1629 95.4624 83.0829L93.9424 82.7629Z" stroke="#DB836E" stroke-width="1.063" stroke-linecap="round" stroke-linejoin="round"/>
<path d="M95.8048 91.262C95.8048 91.262 94.7368 94.083 87.5068 93.367C80.2768 92.65 77.2168 88.323 77.2168 88.323" stroke="#E4EBF7" stroke-width="1.136" stroke-linecap="round" stroke-linejoin="round"/>
<path fill-rule="evenodd" clip-rule="evenodd" d="M78.3816 87.077C78.3816 87.077 84.9076 92.049 94.8516 89.563C94.8516 89.563 104.429 90.583 106.388 94.885C111.748 106.655 106.931 131.72 106.388 134.847C109.884 138.902 105.922 143.33 105.922 143.33C90.2976 139.782 70.1116 142.73 70.1116 142.73C65.2626 139.184 68.8886 133.686 68.8886 133.686L62.6356 109.919C60.1506 94.692 63.4686 90.116 66.1846 89.176C69.2146 88.127 74.2246 87.894 74.2246 87.894C74.7206 87.836 75.3046 87.818 75.5946 87.661C77.9546 86.379 78.3816 87.078 78.3816 87.078" fill="white"/>
<path fill-rule="evenodd" clip-rule="evenodd" d="M66.0839 89.4089C66.0839 89.4089 59.2089 89.8739 58.4939 97.5649C58.0279 106.422 61.5239 108.519 61.5239 108.519C61.5239 108.519 67.5989 130.621 78.3199 131.476C86.7099 129.3 83.0779 124.774 82.9809 120.056C82.7479 108.752 75.8729 103.159 75.8729 103.159C75.8729 103.159 71.6609 89.4089 66.0839 89.4089Z" fill="#FFC6A0"/>
<path fill-rule="evenodd" clip-rule="evenodd" d="M71.9727 123.824C71.9727 123.824 72.8277 135.088 81.8007 130.31C86.5657 127.774 89.3817 116.482 91.5897 107.742C93.0457 101.974 94.1697 95.5449 94.1697 95.5449L89.1967 93.8359C89.1967 93.8359 86.7887 99.3519 81.4277 106.111C77.0927 111.578 72.2837 117.221 71.9727 123.824Z" fill="#FFC6A0"/>
<path d="M108.718 104.79C108.718 104.79 110.465 107.514 106.387 135.325C108.763 137.541 107.44 141.337 106.154 142.835" stroke="#E4EBF7" stroke-width="1.085" stroke-linecap="round" stroke-linejoin="round"/>
<path fill-rule="evenodd" clip-rule="evenodd" d="M123.518 131.126C123.518 131.126 123.091 133.858 111.748 133.107C96.5609 132.101 86.4219 129.857 86.4219 129.857L87.3549 124.057C87.3549 124.057 88.0779 124.272 97.0649 123.989C108.952 123.616 115.779 117.919 122.029 122.967C126.068 126.23 123.518 131.127 123.518 131.127" fill="#FFC6A0"/>
<path fill-rule="evenodd" clip-rule="evenodd" d="M70.4954 90.573C70.4954 90.573 64.9024 85.834 59.4414 93.253C56.1234 100.476 59.9584 108.537 62.1054 112.831C61.7954 116.56 64.4354 117.142 64.4354 117.142C64.4354 117.142 64.5434 118.037 65.9514 119.822C70.0294 112.792 72.6714 110.656 79.6624 107.276C79.3344 106.62 77.7854 104.011 77.8374 103.509C78.0124 101.819 76.5554 100.886 76.5554 100.886C76.5554 100.886 76.2694 100.73 75.3904 98.148C74.6024 95.835 73.3544 92.971 70.4954 90.573Z" fill="white"/>
<path fill-rule="evenodd" clip-rule="evenodd" d="M90.4882 287.626C90.4882 287.626 95.3432 289.934 98.8012 288.781C101.989 287.718 103.921 289.536 106.803 290.112C109.684 290.689 114.572 291.355 120.01 288.688C119.893 282.46 112.224 284.189 106.492 281.1C103.597 279.54 102.216 275.764 102.426 271.156H91.8002C91.8002 271.156 90.2272 283.046 90.4882 287.626Z" fill="#CBD1D1"/>
<path fill-rule="evenodd" clip-rule="evenodd" d="M90.4629 287.432C90.4629 287.432 93.2079 288.869 98.1019 288.17C101.558 287.676 101.325 288.83 105.52 289.452C109.715 290.073 118.612 289.258 119.854 288.326C120.32 289.568 119.466 290.656 119.466 290.656C119.466 290.656 117.757 291.338 114.028 291.588C111.733 291.742 105.93 291.864 103.888 290.967C101.868 289.413 98.9939 289.452 97.8279 290.733C93.4009 291.808 90.6439 290.423 90.6439 290.423L90.4629 287.432Z" fill="#2B0849"/>
<path fill-rule="evenodd" clip-rule="evenodd" d="M98.6843 271.856H102.18C102.18 271.856 102.063 279.43 107.307 281.527C102.063 282.227 97.6353 278.925 98.6843 271.856Z" fill="#A4AABA"/>
<path fill-rule="evenodd" clip-rule="evenodd" d="M44.6804 271.645C44.6804 271.645 42.4724 279.419 39.9784 284.544C38.0944 288.418 35.5504 292.398 45.7074 292.398C52.6774 292.398 55.0924 291.895 53.4894 285.481C51.8854 279.066 53.7684 271.645 53.7684 271.645H44.6804Z" fill="#CBD1D1"/>
<path fill-rule="evenodd" clip-rule="evenodd" d="M38.3215 289.876C38.3215 289.876 40.5195 291.101 45.2755 291.101C51.6515 291.101 53.9215 289.371 53.9215 289.371C53.9215 289.371 54.5515 290.539 53.2725 291.641C52.2325 292.538 49.5025 293.309 45.5275 293.262C41.1805 293.212 39.4125 292.669 38.4655 292.038C37.6015 291.461 37.7455 290.381 38.3215 289.876Z" fill="#2B0849"/>
<path fill-rule="evenodd" clip-rule="evenodd" d="M45.5995 273.64C45.5995 273.64 45.6345 275.232 45.2705 276.71C44.9055 278.2 44.1405 279.965 44.0865 281.05C44.0255 282.256 48.8415 282.707 49.4895 281.086C50.1395 279.464 50.8465 274.349 51.4955 273.484C52.1435 272.619 46.3555 271.262 45.5995 273.64Z" fill="#A4AABA"/>
<path fill-rule="evenodd" clip-rule="evenodd" d="M89.7313 277.169L103.63 277.264C103.63 277.264 104.979 220.621 105.555 210.355C106.131 200.088 109.478 165.303 106.597 144.77L93.5603 144.101L69.8233 144.911C69.8233 144.911 69.3713 149.031 68.5803 155.276C68.5153 155.791 67.8723 156.15 67.8033 156.693C67.7253 157.301 68.2423 158.1 68.1353 158.737C65.6803 173.364 62.3383 191.473 59.8793 205.574C59.7583 206.267 58.5973 206.622 58.3643 208.37C58.3223 208.684 58.5843 209.954 58.4803 210.235C51.3403 229.708 46.2783 262.836 42.8203 277.425L57.9963 277.41C57.9963 277.41 60.2783 267.265 62.1813 258.539C65.1033 245.15 86.1933 170.219 86.1933 170.219L89.3263 169.265L89.1683 217.833C89.1683 217.833 88.9353 219.115 89.5183 219.931C90.1013 220.746 88.9373 221.098 89.1103 222.262L89.5183 224.126C89.5183 224.126 89.0523 231.584 88.5863 236.478C88.1193 241.373 89.7313 277.168 89.7313 277.168" fill="#7BB2F9"/>
<path d="M96.2802 222.133C96.2802 222.133 99.1612 220.981 102.62 218.099M64.8262 218.48C66.0232 218.579 69.0212 216.383 72.0512 213.353L64.8262 218.48Z" stroke="#648BD8" stroke-width="1.085" stroke-linecap="round" stroke-linejoin="round"/>
<path d="M97.2285 218.972C97.2285 218.972 100.111 217.819 103.569 214.938" stroke="#648BD8" stroke-width="1.032" stroke-linecap="round" stroke-linejoin="round"/>
<path d="M44.498 273.326H58.326M63.428 221.743C63.428 221.743 66.152 221.129 70.187 218.247L63.428 221.743ZM75.159 145.765C74.878 148.991 75.469 154.621 70.653 155.243L75.159 145.765ZM93.438 143.943C93.438 143.943 93.553 158.5 92.094 159.593C89.789 161.323 88.987 161.613 88.987 161.613L93.438 143.943ZM89.453 144.522C89.453 144.522 89.722 157.666 88.443 169.61L89.453 144.522ZM83.781 170.309C83.781 170.309 90.591 169.258 92.897 169.258L83.781 170.309ZM46.282 269.644L45.39 274.182L46.282 269.644ZM47.193 262.888L46.378 267.045L47.193 262.888ZM62.981 202.102C62.651 203.72 62.879 204.006 62.532 205.54C62.532 205.54 59.776 207.443 60.242 209.463C60.708 211.483 59.932 212.887 55.737 226.715C53.975 232.522 51.504 245.637 49.572 254.993C49.542 255.137 49.051 257.639 48.432 260.793L62.981 202.102ZM64.414 193.735C64.119 195.393 63.814 197.045 63.497 198.673L64.414 193.735ZM71.586 146.386L70.342 157.263C70.342 157.263 69.202 157.418 69.823 159.593C69.94 160.992 67.045 175.983 64.441 191.208L71.586 146.386Z" stroke="#648BD8" stroke-width="1.085" stroke-linecap="round" stroke-linejoin="round"/>
<path fill-rule="evenodd" clip-rule="evenodd" d="M106.435 141.716C103.407 141.227 87.6099 138.972 70.2159 141.916C70.066 141.942 69.9306 142.022 69.8353 142.14C69.7399 142.259 69.6911 142.408 69.6979 142.56C69.7609 143.867 69.7419 144.903 69.7129 145.555C69.7089 145.647 69.7253 145.738 69.7611 145.823C69.7968 145.907 69.851 145.983 69.9195 146.043C69.9881 146.104 70.0694 146.149 70.1576 146.175C70.2457 146.2 70.3384 146.206 70.4289 146.191C73.7319 145.657 87.4659 143.779 106.093 145.925C106.44 145.965 106.753 145.711 106.785 145.365C106.909 144.018 106.945 142.94 106.955 142.336C106.958 142.187 106.907 142.043 106.811 141.929C106.715 141.815 106.582 141.739 106.435 141.716Z" fill="#192064"/>
<path fill-rule="evenodd" clip-rule="evenodd" d="M96.6548 144.863L96.6578 139.761C96.659 139.543 96.5753 139.332 96.4244 139.174C96.2735 139.016 96.0671 138.923 95.8488 138.914C93.1361 138.813 90.4207 138.808 87.7078 138.9C87.4881 138.908 87.28 139 87.1271 139.158C86.9742 139.316 86.8884 139.527 86.8878 139.747L86.8848 144.844C86.8848 145.32 87.2728 145.701 87.7488 145.689C90.2268 145.625 92.9148 145.622 95.7788 145.706C95.892 145.71 96.0049 145.691 96.1107 145.65C96.2165 145.61 96.3131 145.548 96.3948 145.47C96.4764 145.391 96.5415 145.297 96.5862 145.193C96.6308 145.088 96.6542 144.976 96.6548 144.863Z" fill="white"/>
<path fill-rule="evenodd" clip-rule="evenodd" d="M95.4945 143.895L95.4965 140.7C95.4979 140.526 95.4315 140.359 95.3115 140.233C95.1914 140.108 95.0271 140.034 94.8535 140.028C92.9535 139.967 90.9125 139.955 88.7595 140.018C88.5847 140.023 88.4188 140.096 88.2968 140.222C88.1748 140.347 88.1062 140.515 88.1055 140.69L88.1035 143.882C88.1035 144.258 88.4085 144.559 88.7835 144.551C90.6425 144.509 92.6575 144.508 94.8035 144.563C95.1795 144.573 95.4935 144.272 95.4945 143.895Z" fill="#192064"/>
<path d="M90.6954 170.003L91.6274 216.383C91.6274 216.383 92.3274 218.014 91.3944 219.179C90.4624 220.345 93.9584 219.879 92.3264 221.509C90.6964 223.142 93.2594 222.675 92.3264 225.006C91.7084 226.552 91.2954 246.927 91.1884 261.519M90.3574 273.121H103.176H90.3574ZM91.4714 269.36C91.4774 272.879 91.3994 274.91 91.4714 275.652V269.36ZM91.1784 263.073C91.1694 264.672 91.1624 265.631 91.1624 267.578L91.1784 263.073Z" stroke="#648BD8" stroke-width="1.085" stroke-linecap="round" stroke-linejoin="round"/>
<path d="M77.8537 89.641C77.8537 89.641 85.5447 95.778 94.4007 92.361M73.9917 98.264L76.2057 102.576C76.2057 102.576 78.3037 103.392 78.0707 105.256L78.8867 107.47L73.9917 98.264ZM64.5527 116.21C64.7857 115.278 66.7287 109.063 77.1377 105.722L64.5527 116.21Z" stroke="#E4EBF7" stroke-width="1.085" stroke-linecap="round" stroke-linejoin="round"/>
<path fill-rule="evenodd" clip-rule="evenodd" d="M92.2307 86.553C92.2307 86.553 97.7066 85.737 99.8046 82.008C101.102 81.663 100.525 84.22 99.4747 85.679C98.7747 86.65 98.4647 87.233 98.4647 87.233C98.4647 87.233 98.6586 87.543 98.6196 88.049C98.5666 88.746 98.4447 88.702 98.3477 89.097C98.2667 89.432 98.4557 89.754 98.3477 90.146C98.3017 90.316 98.1497 90.646 97.9657 91.024C97.8457 91.273 97.8937 91.711 97.7657 91.972C97.5347 92.441 96.2037 93.842 95.1437 94.827C91.3177 98.381 90.1257 96.471 89.1427 94.419C88.2487 92.554 88.4817 89.292 88.2687 87.544C87.9187 84.63 85.6466 84.514 86.3456 83.115C86.6886 82.43 89.2156 83.805 89.6086 84.863C90.3656 86.903 92.5607 86.67 92.2307 86.553Z" fill="#FFC6A0"/>
<path d="M100.056 82.028C99.5912 82.105 99.7062 82.3 99.0862 83.271C98.4642 84.242 94.2692 86.203 92.6962 86.495C90.1072 86.975 90.4182 84.935 88.4422 83.64C86.7522 82.533 84.8802 83.002 87.0442 85.038C88.0342 85.97 87.9762 86.145 88.4422 88.243C88.7772 89.749 87.8022 91.913 89.1422 93.836" stroke="#DB836E" stroke-width="0.774" stroke-linecap="round" stroke-linejoin="round"/>
<path d="M79.7992 108.272C77.6992 111.198 75.5332 114.447 74.2422 117.034" stroke="#E59788" stroke-width="0.774" stroke-linecap="round" stroke-linejoin="round"/>
<path fill-rule="evenodd" clip-rule="evenodd" d="M87.976 124.367C87.976 124.367 85.878 122.425 82.849 121.648C79.819 120.871 79.275 121.493 77.333 121.726C75.391 121.959 73.448 120.794 73.681 122.426C73.914 124.056 78.731 123.436 78.887 124.523C79.042 125.61 72.517 127.319 70.574 126.698C69.797 127.475 71.04 128.562 72.594 128.873C72.827 130.427 74.847 130.427 74.847 130.427C74.847 130.427 75.546 131.437 77.488 131.515C79.974 132.835 86.422 130.815 88.442 129.961C90.462 129.106 87.976 124.367 87.976 124.367Z" fill="#FFC6A0"/>
<path d="M79.1192 107.703C79.1192 107.703 70.7292 110.461 65.9512 119.823M73.6802 122.425C73.6802 122.425 74.3402 123.552 76.8472 123.843C79.1622 124.113 79.4102 124.426 79.4102 124.426C79.4102 124.426 76.8652 127.32 70.3402 126.698L73.6802 122.425ZM72.6712 128.873C72.6712 128.873 76.4972 128.97 77.6042 128.155L72.6712 128.873ZM75.2352 130.349C75.2352 130.349 77.1962 130.485 78.5952 129.844L75.2352 130.349ZM77.4872 131.515C77.4872 131.515 79.2352 131.534 80.4012 131.01L77.4872 131.515ZM73.5832 121.92C73.5832 121.92 72.9882 120.888 74.8452 121.493C76.5162 122.037 77.6782 121.548 79.9732 121.648C81.3622 121.709 83.0402 121.351 83.9552 121.798C85.5612 122.582 87.5872 123.979 87.5872 123.979C87.5872 123.979 98.1132 125.183 106.62 122.852L73.5832 121.92Z" stroke="#E59788" stroke-width="0.774" stroke-linecap="round" stroke-linejoin="round"/>
<path d="M109.533 112.132C109.533 112.132 112.913 108.519 117.108 107.47" stroke="#E4EBF7" stroke-width="1.085" stroke-linecap="round" stroke-linejoin="round"/>
<path d="M107.631 122.605C107.631 122.605 117.328 119.86 119.076 121.725" stroke="#E59788" stroke-width="0.774" stroke-linecap="round" stroke-linejoin="round"/>
<path d="M133.231 169.638L129.276 165.683M194.861 83.255L198.832 79.369L194.861 83.255ZM187.422 90.532L191.158 86.877L187.422 90.532ZM192.008 83.806L187.546 79.246L192.008 83.806ZM198.709 90.656L194.576 86.431L198.709 90.656ZM129.512 162.673L133.23 158.955L129.512 162.673ZM122.547 169.638L126.045 166.14L122.547 169.638ZM126.817 163.225L122.547 158.955L126.817 163.225Z" stroke="#BFCDDD" stroke-width="2" stroke-linecap="round" stroke-linejoin="round"/>
<path fill-rule="evenodd" clip-rule="evenodd" d="M190.412 211.378H188.808C187.745 211.375 186.727 210.951 185.975 210.2C185.224 209.448 184.8 208.43 184.797 207.367V175.279C184.8 174.217 185.224 173.199 185.975 172.447C186.726 171.696 187.744 171.272 188.807 171.269H190.412C191.475 171.272 192.493 171.696 193.244 172.447C193.996 173.198 194.419 174.216 194.423 175.279V207.367C194.419 208.43 193.996 209.447 193.245 210.199C192.493 210.95 191.475 211.374 190.413 211.377" fill="#A3B4C6"/>
<path fill-rule="evenodd" clip-rule="evenodd" d="M238.08 212.576C238.08 213.852 237.573 215.077 236.671 215.979C235.768 216.882 234.544 217.389 233.267 217.389H146.631C145.355 217.389 144.131 216.882 143.228 215.979C142.325 215.077 141.818 213.852 141.818 212.576C141.818 211.299 142.325 210.075 143.228 209.173C144.131 208.27 145.355 207.763 146.631 207.763H233.267C234.544 207.763 235.768 208.27 236.671 209.173C237.573 210.075 238.08 211.299 238.08 212.576Z" fill="#A3B4C6"/>
<path fill-rule="evenodd" clip-rule="evenodd" d="M154.354 189.695H224.867V105.078H154.354V189.695Z" fill="#A3B4C6"/>
<path fill-rule="evenodd" clip-rule="evenodd" d="M225.184 189.695H154.036C153.186 189.692 152.372 189.353 151.771 188.752C151.17 188.151 150.831 187.336 150.828 186.486V167.519C150.83 166.669 151.169 165.854 151.77 165.253C152.371 164.651 153.186 164.312 154.036 164.309H225.184C226.035 164.312 226.849 164.651 227.451 165.252C228.052 165.854 228.391 166.669 228.393 167.519V186.486C228.39 187.336 228.051 188.151 227.45 188.753C226.849 189.354 226.034 189.693 225.183 189.695H225.184ZM225.184 130.431H154.036C153.186 130.428 152.372 130.09 151.771 129.489C151.17 128.887 150.831 128.073 150.828 127.223V108.255C150.831 107.405 151.17 106.59 151.771 105.989C152.372 105.388 153.186 105.049 154.036 105.046H225.184C226.035 105.049 226.849 105.388 227.451 105.989C228.052 106.591 228.391 107.406 228.393 108.256V127.223C228.39 128.073 228.051 128.888 227.45 129.489C226.848 130.09 226.033 130.429 225.183 130.431" fill="#BFCDDD"/>
<path fill-rule="evenodd" clip-rule="evenodd" d="M159.819 120.145C159.499 120.152 159.181 120.094 158.883 119.976C158.586 119.858 158.314 119.682 158.086 119.458C157.857 119.234 157.675 118.966 157.551 118.671C157.427 118.376 157.363 118.059 157.363 117.739C157.363 117.418 157.427 117.101 157.551 116.806C157.675 116.511 157.857 116.243 158.086 116.019C158.314 115.795 158.586 115.619 158.883 115.501C159.181 115.383 159.499 115.326 159.819 115.332C160.449 115.345 161.049 115.604 161.49 116.054C161.93 116.504 162.177 117.109 162.177 117.739C162.177 118.368 161.93 118.973 161.49 119.423C161.049 119.873 160.449 120.132 159.819 120.145ZM167.236 120.145C166.916 120.152 166.598 120.094 166.3 119.976C166.003 119.858 165.731 119.682 165.503 119.458C165.274 119.234 165.092 118.966 164.968 118.671C164.844 118.376 164.78 118.059 164.78 117.739C164.78 117.418 164.844 117.101 164.968 116.806C165.092 116.511 165.274 116.243 165.503 116.019C165.731 115.795 166.003 115.619 166.3 115.501C166.598 115.383 166.916 115.326 167.236 115.332C167.866 115.345 168.466 115.604 168.907 116.054C169.347 116.504 169.594 117.109 169.594 117.739C169.594 118.368 169.347 118.973 168.907 119.423C168.466 119.873 167.866 120.132 167.236 120.145ZM174.653 120.145C174.333 120.152 174.015 120.094 173.717 119.976C173.42 119.858 173.148 119.682 172.92 119.458C172.691 119.234 172.509 118.966 172.385 118.671C172.261 118.376 172.197 118.059 172.197 117.739C172.197 117.418 172.261 117.101 172.385 116.806C172.509 116.511 172.691 116.243 172.92 116.019C173.148 115.795 173.42 115.619 173.717 115.501C174.015 115.383 174.333 115.326 174.653 115.332C175.283 115.345 175.883 115.604 176.324 116.054C176.764 116.504 177.011 117.109 177.011 117.739C177.011 118.368 176.764 118.973 176.324 119.423C175.883 119.873 175.283 120.132 174.653 120.145ZM222.795 120.145H200.334C200.122 120.145 199.918 120.061 199.767 119.91C199.617 119.76 199.532 119.556 199.532 119.343V116.135C199.532 115.692 199.891 115.332 200.334 115.332H222.794C223.238 115.332 223.597 115.692 223.597 116.135V119.343C223.597 119.786 223.237 120.145 222.795 120.145Z" fill="white"/>
<path fill-rule="evenodd" clip-rule="evenodd" d="M225.184 160.063H154.036C153.186 160.06 152.371 159.721 151.77 159.12C151.169 158.519 150.83 157.704 150.828 156.854V137.887C150.831 137.037 151.17 136.222 151.771 135.621C152.372 135.02 153.186 134.681 154.036 134.678H225.184C226.034 134.681 226.849 135.02 227.45 135.621C228.052 136.222 228.39 137.037 228.393 137.887V156.854C228.391 157.705 228.052 158.52 227.45 159.121C226.849 159.722 226.034 160.061 225.183 160.063" fill="#BFCDDD"/>
<path d="M155.826 160.212H162.577M173.711 130.431H223.012H173.711ZM165.24 130.431H171.329H165.24ZM156.208 130.431H162.958H156.208ZM174.093 160.212H223.393H174.093ZM165.621 160.212H171.71H165.621Z" stroke="#7C90A5" stroke-width="1.124" stroke-linecap="round" stroke-linejoin="round"/>
<path fill-rule="evenodd" clip-rule="evenodd" d="M159.819 150.637C159.181 150.637 158.569 150.383 158.117 149.932C157.666 149.481 157.412 148.868 157.412 148.23C157.412 147.592 157.666 146.979 158.117 146.528C158.569 146.077 159.181 145.823 159.819 145.823C160.458 145.823 161.07 146.077 161.521 146.528C161.973 146.979 162.226 147.592 162.226 148.23C162.226 148.868 161.973 149.481 161.521 149.932C161.07 150.383 160.458 150.637 159.819 150.637ZM167.236 150.637C166.598 150.637 165.986 150.383 165.534 149.932C165.083 149.481 164.829 148.868 164.829 148.23C164.829 147.592 165.083 146.979 165.534 146.528C165.986 146.077 166.598 145.823 167.236 145.823C167.875 145.823 168.487 146.077 168.938 146.528C169.39 146.979 169.643 147.592 169.643 148.23C169.643 148.868 169.39 149.481 168.938 149.932C168.487 150.383 167.875 150.637 167.236 150.637ZM174.653 150.637C174.337 150.637 174.024 150.575 173.732 150.454C173.44 150.333 173.175 150.155 172.951 149.932C172.728 149.708 172.551 149.443 172.43 149.151C172.309 148.859 172.247 148.546 172.247 148.229C172.247 147.913 172.309 147.6 172.43 147.308C172.551 147.016 172.729 146.751 172.952 146.528C173.176 146.304 173.441 146.127 173.733 146.006C174.025 145.885 174.338 145.823 174.654 145.823C175.293 145.823 175.905 146.077 176.356 146.528C176.808 146.979 177.061 147.592 177.061 148.23C177.061 148.868 176.808 149.481 176.356 149.932C175.905 150.383 175.293 150.637 174.654 150.637H174.653ZM222.795 150.637H200.334C200.122 150.637 199.918 150.553 199.767 150.402C199.617 150.252 199.532 150.048 199.532 149.835V146.626C199.532 146.183 199.891 145.824 200.334 145.824H222.794C223.238 145.824 223.597 146.184 223.597 146.626V149.835C223.597 150.278 223.237 150.637 222.795 150.637ZM159.819 179.586C159.499 179.593 159.181 179.535 158.883 179.417C158.586 179.299 158.314 179.123 158.086 178.899C157.857 178.675 157.675 178.407 157.551 178.112C157.427 177.817 157.363 177.5 157.363 177.18C157.363 176.859 157.427 176.542 157.551 176.247C157.675 175.952 157.857 175.684 158.086 175.46C158.314 175.236 158.586 175.06 158.883 174.942C159.181 174.824 159.499 174.766 159.819 174.773C160.449 174.786 161.049 175.045 161.49 175.495C161.93 175.945 162.177 176.55 162.177 177.18C162.177 177.809 161.93 178.414 161.49 178.864C161.049 179.314 160.449 179.573 159.819 179.586ZM167.236 179.586C166.916 179.593 166.598 179.535 166.3 179.417C166.003 179.299 165.731 179.123 165.503 178.899C165.274 178.675 165.092 178.407 164.968 178.112C164.844 177.817 164.78 177.5 164.78 177.18C164.78 176.859 164.844 176.542 164.968 176.247C165.092 175.952 165.274 175.684 165.503 175.46C165.731 175.236 166.003 175.06 166.3 174.942C166.598 174.824 166.916 174.766 167.236 174.773C167.866 174.786 168.466 175.045 168.907 175.495C169.347 175.945 169.594 176.55 169.594 177.18C169.594 177.809 169.347 178.414 168.907 178.864C168.466 179.314 167.866 179.573 167.236 179.586ZM174.653 179.586C174.333 179.593 174.015 179.535 173.717 179.417C173.42 179.299 173.148 179.123 172.92 178.899C172.691 178.675 172.509 178.407 172.385 178.112C172.261 177.817 172.197 177.5 172.197 177.18C172.197 176.859 172.261 176.542 172.385 176.247C172.509 175.952 172.691 175.684 172.92 175.46C173.148 175.236 173.42 175.06 173.717 174.942C174.015 174.824 174.333 174.766 174.653 174.773C175.283 174.786 175.883 175.045 176.324 175.495C176.764 175.945 177.011 176.55 177.011 177.18C177.011 177.809 176.764 178.414 176.324 178.864C175.883 179.314 175.283 179.573 174.653 179.586ZM222.795 179.586H200.334C200.122 179.586 199.918 179.502 199.767 179.351C199.617 179.201 199.532 178.997 199.532 178.784V175.575C199.532 175.132 199.891 174.773 200.334 174.773H222.794C223.238 174.773 223.597 175.133 223.597 175.575V178.784C223.597 179.227 223.237 179.586 222.795 179.586Z" fill="white"/>
<path fill-rule="evenodd" clip-rule="evenodd" d="M203.296 220.707H175.924C175.286 220.705 174.675 220.451 174.224 220C173.773 219.549 173.519 218.938 173.518 218.3V206.852C173.519 206.214 173.773 205.603 174.224 205.152C174.675 204.701 175.286 204.447 175.924 204.445H203.296C203.933 204.447 204.545 204.701 204.996 205.152C205.447 205.603 205.701 206.214 205.703 206.852V218.299C205.701 218.937 205.447 219.548 204.996 219.999C204.545 220.45 203.933 220.704 203.296 220.706" fill="#BFCDDD"/>
<path d="M201.307 206.816V218.336M177.516 206.816V218.336V206.816Z" stroke="#A3B4C6" stroke-width="1.124" stroke-linecap="round" stroke-linejoin="round"/>
<path fill-rule="evenodd" clip-rule="evenodd" d="M163.129 267.493C160.63 267.493 158.234 266.5 156.467 264.733C154.7 262.966 153.707 260.57 153.707 258.071V243.251C153.733 240.769 154.737 238.397 156.501 236.651C158.265 234.905 160.647 233.925 163.13 233.925C165.612 233.925 167.994 234.905 169.758 236.651C171.522 238.397 172.526 240.769 172.552 243.251V258.071C172.552 260.57 171.559 262.966 169.792 264.733C168.025 266.5 165.628 267.493 163.129 267.493Z" fill="#5BA02E"/>
<path fill-rule="evenodd" clip-rule="evenodd" d="M171.477 267.429C170.239 267.429 169.014 267.185 167.871 266.712C166.728 266.238 165.689 265.544 164.814 264.669C163.939 263.794 163.245 262.755 162.772 261.612C162.298 260.469 162.055 259.244 162.055 258.006V254.568C162.08 252.086 163.084 249.714 164.849 247.968C166.613 246.222 168.995 245.242 171.477 245.242C173.96 245.242 176.342 246.222 178.106 247.968C179.87 249.714 180.874 252.086 180.9 254.568V258.006C180.9 260.505 179.907 262.902 178.14 264.669C176.373 266.436 173.977 267.429 171.478 267.429" fill="#92C110"/>
<path fill-rule="evenodd" clip-rule="evenodd" d="M181.566 293.265H153.854C153.432 293.265 153.015 293.182 152.625 293.021C152.236 292.859 151.882 292.623 151.584 292.325C151.286 292.027 151.05 291.673 150.889 291.283C150.727 290.894 150.644 290.476 150.645 290.055V269.389C150.644 268.967 150.727 268.55 150.889 268.161C151.05 267.771 151.286 267.417 151.584 267.119C151.882 266.821 152.236 266.585 152.625 266.423C153.015 266.262 153.432 266.179 153.854 266.179H181.565C181.986 266.179 182.403 266.262 182.793 266.423C183.182 266.585 183.536 266.821 183.834 267.119C184.132 267.417 184.368 267.771 184.53 268.161C184.691 268.55 184.774 268.967 184.774 269.389V290.057C184.774 290.908 184.435 291.724 183.834 292.326C183.232 292.928 182.416 293.266 181.565 293.266" fill="#F2D7AD"/>
</svg>
