<svg width="250" height="200" viewBox="0 0 250 200" fill="none" xmlns="http://www.w3.org/2000/svg">
<path fill-rule="evenodd" clip-rule="evenodd" d="M211.239 65C215.296 65 218.585 68.134 218.585 72C218.585 75.866 215.296 79 211.239 79H169.26C173.317 79 176.606 82.134 176.606 86C176.606 89.866 173.317 93 169.26 93H192.348C196.406 93 199.695 96.134 199.695 100C199.695 103.866 196.406 107 192.348 107H181.671C176.556 107 172.409 110.134 172.409 114C172.409 116.577 174.508 118.911 178.705 121C182.763 121 186.052 124.134 186.052 128C186.052 131.866 182.763 135 178.705 135H91.6C87.5428 135 84.2537 131.866 84.2537 128C84.2537 124.134 87.5428 121 91.6 121H50.6709C46.6137 121 43.3247 117.866 43.3247 114C43.3247 110.134 46.6137 107 50.6709 107H92.6494C96.7067 107 99.9957 103.866 99.9957 100C99.9957 96.134 96.7067 93 92.6494 93H66.4129C62.3557 93 59.0666 89.866 59.0666 86C59.0666 82.134 62.3557 79 66.4129 79H108.391C104.334 79 101.045 75.866 101.045 72C101.045 68.134 104.334 65 108.391 65H211.239ZM211.239 93C215.296 93 218.585 96.134 218.585 100C218.585 103.866 215.296 107 211.239 107C207.181 107 203.892 103.866 203.892 100C203.892 96.134 207.181 93 211.239 93Z" fill="#FFF2F2"/>
<circle cx="182.172" cy="83.8713" r="2.22581" fill="#F8A795" stroke="#F8A795" stroke-width="2"/>
<path d="M125.845 66.1325C125.662 65.8427 125.343 65.667 125 65.667C124.657 65.667 124.338 65.8427 124.155 66.1325L79.7887 136.294C79.5939 136.602 79.5822 136.992 79.758 137.311C79.9338 137.63 80.2694 137.828 80.6339 137.828H169.366C169.73 137.828 170.066 137.63 170.242 137.311C170.418 136.992 170.406 136.602 170.211 136.294L125.845 66.1325Z" fill="white" stroke="#F26243" stroke-width="2" stroke-linejoin="round"/>
<path d="M109.546 98.1275C109.456 97.9796 109.296 97.8886 109.123 97.8872C108.95 97.8858 108.788 97.9741 108.696 98.1206L86.6672 133.067C86.5701 133.221 86.5645 133.416 86.6524 133.575C86.7404 133.734 86.9081 133.833 87.0902 133.833H162.91C163.092 133.833 163.259 133.735 163.347 133.576C163.435 133.417 163.43 133.223 163.334 133.069L154.625 119.091C154.527 118.933 154.349 118.842 154.163 118.856C153.113 118.935 150.835 118.732 147.242 117.935C143.665 117.142 138.821 115.769 132.656 113.538C126.516 111.315 121.359 108.49 117.421 105.7C113.473 102.903 110.784 100.164 109.546 98.1275Z" fill="#FFECE8" stroke="#FFECE8" stroke-linecap="round" stroke-linejoin="round"/>
<rect x="121.951" y="85.0215" width="6.09836" height="31.0323" rx="3.04918" fill="#FFE3DD" stroke="#F26243" stroke-width="2" stroke-linejoin="round"/>
<path d="M128.099 124.731C128.099 126.6 126.666 128.032 125 128.032C123.334 128.032 121.902 126.6 121.902 124.731C121.902 122.862 123.334 121.43 125 121.43C126.666 121.43 128.099 122.862 128.099 124.731Z" fill="white" stroke="#F26243" stroke-width="2"/>
<path d="M154.737 75.2688C154.737 77.138 153.305 78.5699 151.639 78.5699C149.973 78.5699 148.541 77.138 148.541 75.2688C148.541 73.3997 149.973 71.9678 151.639 71.9678C153.305 71.9678 154.737 73.3997 154.737 75.2688Z" fill="white" stroke="#F8A795" stroke-width="2"/>
<path d="M97.3607 86.0217C97.3607 87.297 96.3873 88.2475 95.2869 88.2475C94.1865 88.2475 93.2131 87.297 93.2131 86.0217C93.2131 84.7464 94.1865 83.7959 95.2869 83.7959C96.3873 83.7959 97.3607 84.7464 97.3607 86.0217Z" fill="#F8A795" stroke="#F8A795" stroke-width="2"/>
<rect x="86.0173" y="96.7744" width="2" height="10" rx="1" transform="rotate(45 86.0173 96.7744)" fill="#F8A795"/>
<rect x="87.4316" y="103.846" width="2" height="10" rx="1" transform="rotate(135 87.4316 103.846)" fill="#F8A795"/>
<rect x="172.039" y="89.2471" width="2" height="10" rx="1" transform="rotate(45 172.039 89.2471)" fill="#F8A795"/>
<rect x="173.453" y="96.3184" width="2" height="10" rx="1" transform="rotate(135 173.453 96.3184)" fill="#F8A795"/>
</svg>
