<svg width="248" height="200" viewBox="0 0 248 200" fill="none" xmlns="http://www.w3.org/2000/svg">
<path fill-rule="evenodd" clip-rule="evenodd" d="M62 142.955H153C153.515 142.955 154.017 142.899 154.5 142.794C154.983 142.899 155.485 142.955 156 142.955H208C211.866 142.955 215 139.821 215 135.955C215 132.089 211.866 128.955 208 128.955H202C198.134 128.955 195 125.821 195 121.955C195 118.089 198.134 114.955 202 114.955H221C224.866 114.955 228 111.821 228 107.955C228 104.089 224.866 100.955 221 100.955H199C202.866 100.955 206 97.8206 206 93.9546C206 90.0886 202.866 86.9546 199 86.9546H135C138.866 86.9546 142 83.8206 142 79.9546C142 76.0886 138.866 72.9546 135 72.9546H78C74.134 72.9546 71 76.0886 71 79.9546C71 83.8206 74.134 86.9546 78 86.9546H38C34.134 86.9546 31 90.0886 31 93.9546C31 97.8206 34.134 100.955 38 100.955H63C66.866 100.955 70 104.089 70 107.955C70 111.821 66.866 114.955 63 114.955H23C19.134 114.955 16 118.089 16 121.955C16 125.821 19.134 128.955 23 128.955H62C58.134 128.955 55 132.089 55 135.955C55 139.821 58.134 142.955 62 142.955ZM225 142.955C228.866 142.955 232 139.821 232 135.955C232 132.089 228.866 128.955 225 128.955C221.134 128.955 218 132.089 218 135.955C218 139.821 221.134 142.955 225 142.955Z" fill="#F5FFF3"/>
<path d="M172.5 82.4546V95.9546V130.455L170.5 134.455L167 136.455H93.5L89 134.455L87.5 130.455V71.9546L91 74.4546L94 74.9546L169 75.4546L172.5 82.4546Z" fill="white"/>
<path d="M151.5 70.5459H107L143 57.0459L147 59.0459L151.5 70.5459Z" fill="white"/>
<path d="M152 70.4546H106L94.5 74.4546H153.5L152 70.4546Z" fill="#F5FFF3"/>
<path d="M165 70.4546L165.5 74.9546H153.5L150.5 64.9546L159.5 65.4546L163.5 66.4546L165 70.4546Z" fill="#F5FFF3"/>
<path d="M142.5 115.955C126.1 110.355 116.667 90.2879 114 80.9546H93.5V131.955H167.5V123.455C166 123.288 158.9 121.555 142.5 115.955Z" fill="#F5FFF3" stroke="#F5FFF3" stroke-width="2" stroke-linecap="round" stroke-linejoin="round"/>
<path d="M92.5 74.9546L120 65.4546L91.5 64.9546L87.5 68.4546L89 73.4546L92.5 74.9546Z" fill="#F5FFF3"/>
<path d="M95 83.4546H165" stroke="#27AE60" stroke-width="1.5" stroke-linecap="round" stroke-linejoin="round" stroke-dasharray="5 5"/>
<path d="M95 128.955H165" stroke="#27AE60" stroke-width="1.5" stroke-linecap="round" stroke-linejoin="round" stroke-dasharray="5 5"/>
<path d="M172.5 95.9546V84.4419C172.5 82.0146 171.086 75.2308 165.513 74.9544C165.513 74.9544 165.175 74.9419 165 74.9419C163.724 74.9419 157.692 74.9419 153.5 74.9419M92.5 74.9419C90.8333 74.7752 87.5 73.5419 87.5 69.9419M92.5 74.9419L142.5 57.4419C145.5 56.4546 146.721 58.1632 147 58.4419C148.5 59.9414 152 70.4419 153.5 74.9419M92.5 74.9419C109.559 74.9419 137.979 74.9419 153.5 74.9419M87.5 69.9419C87.5 66.3419 90.8333 65.1086 92.5 64.9419C92.5 64.9419 115.571 64.942 121.071 64.9419M87.5 69.9419C87.5 87.6086 87.5 125.242 87.5 128.442C87.5 132.442 88.5 133.442 89.5 134.442C91.3111 136.253 94 136.442 95 136.442H164.5C166 136.442 169.086 136.356 170.5 134.942C171.5 133.942 172.5 132.442 172.5 129.442V114.942" stroke="#27AE60" stroke-width="2" stroke-linecap="round" stroke-linejoin="round"/>
<path d="M150 64.9546H159.5C160.5 64.9546 164.5 65.4546 165 70.9546V74.9546" stroke="#27AE60" stroke-width="2"/>
<path d="M156 104.955C156 102.193 158.239 99.9546 161 99.9546H175C175.552 99.9546 176 100.402 176 100.955V112.955C176 113.507 175.552 113.955 175 113.955H161C158.239 113.955 156 111.716 156 108.955V104.955Z" stroke="#27AE60" stroke-width="2"/>
<circle cx="163" cy="106.955" r="2.75" fill="#F5FFF3" stroke="#27AE60" stroke-width="1.5"/>
</svg>
