<svg width="248" height="200" viewBox="0 0 248 200" fill="none" xmlns="http://www.w3.org/2000/svg">
<path fill-rule="evenodd" clip-rule="evenodd" d="M62 142.909H153C153.515 142.909 154.017 142.853 154.5 142.748C154.983 142.853 155.485 142.909 156 142.909H208C211.866 142.909 215 139.775 215 135.909C215 132.043 211.866 128.909 208 128.909H202C198.134 128.909 195 125.775 195 121.909C195 118.043 198.134 114.909 202 114.909H221C224.866 114.909 228 111.775 228 107.909C228 104.043 224.866 100.909 221 100.909H199C202.866 100.909 206 97.7747 206 93.9087C206 90.0427 202.866 86.9087 199 86.9087H135C138.866 86.9087 142 83.7747 142 79.9087C142 76.0427 138.866 72.9087 135 72.9087H78C74.134 72.9087 71 76.0427 71 79.9087C71 83.7747 74.134 86.9087 78 86.9087H38C34.134 86.9087 31 90.0427 31 93.9087C31 97.7747 34.134 100.909 38 100.909H63C66.866 100.909 70 104.043 70 107.909C70 111.775 66.866 114.909 63 114.909H23C19.134 114.909 16 118.043 16 121.909C16 125.775 19.134 128.909 23 128.909H62C58.134 128.909 55 132.043 55 135.909C55 139.775 58.134 142.909 62 142.909ZM225 142.909C228.866 142.909 232 139.775 232 135.909C232 132.043 228.866 128.909 225 128.909C221.134 128.909 218 132.043 218 135.909C218 139.775 221.134 142.909 225 142.909Z" fill="#FFF2F2"/>
<path d="M172.5 82.4087V95.9087V130.409L170.5 134.409L167 136.409H93.5L89 134.409L87.5 130.409V71.9087L91 74.4087L94 74.9087L169 75.4087L172.5 82.4087Z" fill="white"/>
<path d="M152 70.4087H106L94.5 74.4087H153.5L152 70.4087Z" fill="#FFF2F2"/>
<path d="M165 70.4087L165.5 74.9087H153.5L150.5 64.9087L159.5 65.4087L163.5 66.4087L165 70.4087Z" fill="#FFF2F2"/>
<path d="M142.5 115.909C126.1 110.309 116.667 90.242 114 80.9087H93.5V131.909H167.5V123.409C166 123.242 158.9 121.509 142.5 115.909Z" fill="#FFF2F2" stroke="#FFF2F2" stroke-width="2" stroke-linecap="round" stroke-linejoin="round"/>
<path d="M92.5 74.9087L120 65.4087L91.5 64.9087L87.5 68.4087L89 73.4087L92.5 74.9087Z" fill="#FFF2F2"/>
<path d="M95 83.4087H165" stroke="#F26243" stroke-width="1.5" stroke-linecap="round" stroke-linejoin="round" stroke-dasharray="5 5"/>
<path d="M95 128.909H165" stroke="#F26243" stroke-width="1.5" stroke-linecap="round" stroke-linejoin="round" stroke-dasharray="5 5"/>
<path d="M151.5 70.5H107L143 57L147 59L151.5 70.5Z" fill="white"/>
<path d="M172.5 95.9087V84.396C172.5 81.9687 171.086 75.1849 165.513 74.9085C165.513 74.9085 165.175 74.896 165 74.896C163.724 74.896 157.692 74.896 153.5 74.896M92.5 74.896C90.8333 74.7293 87.5 73.496 87.5 69.896M92.5 74.896L142.5 57.396C145.5 56.4087 146.721 58.1173 147 58.396C148.5 59.8955 152 70.396 153.5 74.896M92.5 74.896C109.559 74.896 137.979 74.896 153.5 74.896M87.5 69.896C87.5 66.296 90.8333 65.0627 92.5 64.896C92.5 64.896 115.571 64.8961 121.071 64.896M87.5 69.896C87.5 87.5627 87.5 125.196 87.5 128.396C87.5 132.396 88.5 133.396 89.5 134.396C91.3111 136.207 94 136.396 95 136.396H164.5C166 136.396 169.086 136.31 170.5 134.896C171.5 133.896 172.5 132.396 172.5 129.396V114.896" stroke="#F26243" stroke-width="2" stroke-linecap="round" stroke-linejoin="round"/>
<path d="M150 64.9087H159.5C160.5 64.9087 164.5 65.4087 165 70.9087V74.9087" stroke="#F26243" stroke-width="2"/>
<path d="M156 104.909C156 102.147 158.239 99.9087 161 99.9087H175C175.552 99.9087 176 100.356 176 100.909V112.909C176 113.461 175.552 113.909 175 113.909H161C158.239 113.909 156 111.67 156 108.909V104.909Z" stroke="#F26243" stroke-width="2"/>
<circle cx="163" cy="106.909" r="2.75" fill="#FFF2F2" stroke="#F26243" stroke-width="1.5"/>
</svg>
